<?xml version="1.0" encoding="UTF-8" standalone="no"?>
<!-- Created with Inkscape (http://www.inkscape.org/) -->

<svg
   width="210mm"
   height="297mm"
   viewBox="0 0 210 297"
   version="1.1"
   id="svg7496"
   inkscape:version="1.1.2 (08b2f3d93c, 2022-04-05)"
   sodipodi:docname="asteroids.svg"
   xmlns:inkscape="http://www.inkscape.org/namespaces/inkscape"
   xmlns:sodipodi="http://sodipodi.sourceforge.net/DTD/sodipodi-0.dtd"
   xmlns="http://www.w3.org/2000/svg"
   xmlns:svg="http://www.w3.org/2000/svg">
  <sodipodi:namedview
     id="namedview7498"
     pagecolor="#000000"
     bordercolor="#666666"
     borderopacity="1.0"
     inkscape:pageshadow="2"
     inkscape:pageopacity="0"
     inkscape:pagecheckerboard="true"
     inkscape:document-units="mm"
     showgrid="false"
     inkscape:zoom="2.8170388"
     inkscape:cx="239.43582"
     inkscape:cy="682.98668"
     inkscape:window-width="1366"
     inkscape:window-height="731"
     inkscape:window-x="1024"
     inkscape:window-y="0"
     inkscape:window-maximized="1"
     inkscape:current-layer="layer1" />
  <defs
     id="defs7493" />
  <g
     inkscape:label="Layer 1"
     inkscape:groupmode="layer"
     id="layer1">
    <path
       style="fill:none;stroke:#ffffff;stroke-width:0.264583px;stroke-linecap:butt;stroke-linejoin:miter;stroke-opacity:1"
       d="m 43.22682,155.25728 2.034725,-3.44065 4.246843,1.92258 4.664628,-0.80121 0.160983,4.11075 4.065458,2.23561 1.429349,5.86587 -8.350942,5.23511 -3.101798,-2.71648 -6.521633,4.70934 -0.659495,-7.38737 -2.357082,-1.69603 0.366393,-6.10604 z"
       id="path7533"
       sodipodi:nodetypes="cccccccccccccc"
       inkscape:export-filename="/home/yudi/Documents/1-projetos/programming/games/asteroids/assets/img/asteroid-0.png"
       inkscape:export-xdpi="96"
       inkscape:export-ydpi="96" />
    <path
       style="fill:none;stroke:#ffffff;stroke-width:0.421987px;stroke-linecap:butt;stroke-linejoin:miter;stroke-opacity:1"
       d="m 68.600852,154.96993 3.995211,3.91894 7.789358,-3.51905 -2.516671,5.08284 4.060243,0.58603 2.253117,6.09689 -8.692748,0.1885 -4.98637,4.95582 -5.453421,-6.16598 3.859882,-2.9569 -5.001705,-2.96623 z"
       id="path7533-4"
       sodipodi:nodetypes="cccccccccccc"
       inkscape:export-filename="/home/yudi/Documents/1-projetos/programming/games/asteroids/assets/img/asteroid-1.png"
       inkscape:export-xdpi="96"
       inkscape:export-ydpi="96" />
    <path
       style="fill:none;stroke:#ffffff;stroke-width:0.451012px;stroke-linecap:butt;stroke-linejoin:miter;stroke-opacity:1"
       d="m 56.321041,175.37367 1.980536,6.37971 10.575013,-5.95097 3.016669,7.87484 -7.370707,-0.0223 8.399117,4.76211 -8.292834,1.46876 -6.281211,4.04674 -5.810199,-6.61087 7.671986,-2.28106 -8.888511,-4.06944 z"
       id="path7533-4-7"
       sodipodi:nodetypes="cccccccccccc"
       inkscape:export-filename="/home/yudi/Documents/1-projetos/programming/games/asteroids/assets/img/asteroid-2.png"
       inkscape:export-xdpi="96"
       inkscape:export-ydpi="96" />
    <path
       style="fill:none;stroke:#ffffff;stroke-width:0.451012px;stroke-linecap:butt;stroke-linejoin:miter;stroke-opacity:1"
       d="m 81.966457,173.05857 6.156831,4.66947 6.398718,-4.24073 3.016669,7.87484 -3.280664,-2.40967 5.150639,8.96691 -4.755732,3.09242 -4.174977,-0.51981 -3.711097,-0.31947 -0.0486,-6.74393 -9.751928,-4.77251 z"
       id="path7533-4-7-6"
       sodipodi:nodetypes="cccccccccccc"
       inkscape:export-filename="/home/yudi/Documents/1-projetos/programming/games/asteroids/assets/img/asteroid-3.png"
       inkscape:export-xdpi="96"
       inkscape:export-ydpi="96" />
  </g>
</svg>
